PathFileType  4	(X/Y/Z) C:\Users\antoi\Documents\MyRepositories\mobilecap\ResultsAnalysis
DataRate	CameraRate	NumFrames	NumMarkers	Units	OrigDataRate	OrigDataStartFrame	OrigNumFrames
100.0	100.0	5	51	mm	100.0	105	279
Frame#	Time	r_knee			r_shank_antsup			r_ankle			r_calc			r_5meta			r_toe			L_knee			L_shank_antsup			L_ankle			L_calc			L_5meta			L_toe			r_sh2			r_sh3			r_sh4			L_sh2			L_sh3			r_thigh1			r_thigh2			r_thigh3			r_thigh4			r_thigh5			L_thigh1			L_thigh2			L_thigh3			L_thigh4			r.ASIS			r.PSIS			L.ASIS			L.PSIS			C7			R_Shoulder			L_Shoulder			R_Sternum			L_Sternum			R_humerus			R_elbow_med			R_elbow_lat			R_forearm			R_wrist_radius			R_wrist_ulna			L_humerus			L_elbow_med			L_elbow_lat			L_forearm			L_wrist_radius			L_wrist_ulna			R_HJC			L_HJC			R_HJC_reg			L_HJC_reg			
		X1	Y1	Z1	X2	Y2	Z2	X3	Y3	Z3	X4	Y4	Z4	X5	Y5	Z5	X6	Y6	Z6	X7	Y7	Z7	X8	Y8	Z8	X9	Y9	Z9	X10	Y10	Z10	X11	Y11	Z11	X12	Y12	Z12	X13	Y13	Z13	X14	Y14	Z14	X15	Y15	Z15	X16	Y16	Z16	X17	Y17	Z17	X18	Y18	Z18	X19	Y19	Z19	X20	Y20	Z20	X21	Y21	Z21	X22	Y22	Z22	X23	Y23	Z23	X24	Y24	Z24	X25	Y25	Z25	X26	Y26	Z26	X27	Y27	Z27	X28	Y28	Z28	X29	Y29	Z29	X30	Y30	Z30	X31	Y31	Z31	X32	Y32	Z32	X33	Y33	Z33	X34	Y34	Z34	X35	Y35	Z35	X36	Y36	Z36	X37	Y37	Z37	X38	Y38	Z38	X39	Y39	Z39	X40	Y40	Z40	X41	Y41	Z41	X42	Y42	Z42	X43	Y43	Z43	X44	Y44	Z44	X45	Y45	Z45	X46	Y46	Z46	X47	Y47	Z47	X48	Y48	Z48	X49	Y49	Z49	X50	Y50	Z50	X51	Y51	Z51	

105	1.04000000	-926.58808	891.16081	-442.41233	-943.02072	807.20755	-430.53116	-1184.09264	537.05417	-446.93303	-1260.19717	538.76690	-497.02900	-1126.06910	389.99654	-412.63716	-1082.90956	388.47554	-469.48629	-723.25673	982.15061	-773.38752	-754.05729	874.26342	-792.92376	-979.08892	638.09505	-746.30708	-1046.31767	638.19322	-681.42077	-872.83052	490.92242	-764.97213	-927.84237	489.48634	-813.88072	-1005.98609	713.79167	-422.75759	-1002.18763	849.41521	-407.84269	-1074.22304	757.79916	-408.84637	-820.55280	934.10876	-783.97961	-888.88965	833.42385	-777.07923	-823.48276	1195.40319	-393.72472	-821.48529	1086.78523	-416.05967	-875.26358	1055.97848	-388.77802	-937.30325	1188.68871	-382.80226	-928.50491	1072.92202	-394.36075	-803.25548	1292.20773	-761.37886	-725.33137	1177.88802	-777.91164	-900.39102	1225.39035	-750.65590	-818.62238	1116.31663	-780.50021	-792.42180	1397.77823	-428.45421	-977.84412	1479.22748	-479.36855	-823.06620	1431.86909	-682.28986	-993.48013	1487.02066	-586.81163	-930.25671	1980.35120	-510.23259	-893.61894	1978.92168	-378.42025	-872.28441	1992.57401	-636.11531	-779.18995	1904.47361	-475.43080	-777.22962	1906.70663	-536.40125	-734.45389	1913.69669	-198.96271	-639.94802	1815.69629	-212.89803	-655.06337	1885.20662	-152.26951	-578.90258	1991.33017	-247.19851	-525.04183	2049.99153	-327.68921	-505.50816	2051.34274	-286.64185	-812.72854	1946.24948	-867.49537	-747.64530	1840.02546	-934.99496	-772.01289	1918.05523	-950.35149	-639.54359	2011.13668	-891.83345	-575.51404	2052.42398	-832.99906	-560.03329	2053.05515	-871.09012	-889.17327	1336.14140	-434.21314	-910.60887	1362.94035	-662.01125	-880.44338	1349.34757	-455.90713	-904.89847	1361.53434	-623.94102	
106	1.05000000	-904.52048	899.08308	-440.70887	-921.35700	815.57042	-428.29578	-1168.00020	550.15896	-445.89128	-1244.02642	554.85835	-496.03788	-1114.80888	401.20405	-413.19862	-1070.63610	397.06221	-469.33849	-714.23411	988.15466	-772.73306	-742.80203	879.58133	-793.20230	-961.41129	637.52166	-746.98326	-1028.64486	635.03308	-682.38815	-851.73728	493.30163	-767.34656	-906.38747	491.44647	-816.65738	-986.53567	722.64641	-421.82130	-980.02405	858.24735	-406.30338	-1054.24329	768.82353	-406.88804	-810.69888	937.77942	-782.86253	-876.48271	835.21713	-776.69683	-807.79048	1205.71619	-392.93229	-803.42093	1096.68974	-414.79589	-856.73784	1065.17744	-387.79825	-921.44161	1196.31902	-382.67508	-910.11478	1080.67374	-393.94760	-792.96599	1299.06968	-762.68145	-715.94551	1183.94351	-779.26365	-890.41704	1232.99892	-748.89694	-809.88329	1122.91223	-778.70213	-779.44291	1408.05583	-428.37656	-965.45956	1488.02157	-479.35267	-810.63897	1441.61418	-682.79143	-981.02306	1495.62704	-586.75059	-920.55377	1989.76530	-511.37878	-884.95624	1988.62405	-380.01738	-862.53825	2001.77939	-637.15094	-769.07601	1914.78237	-475.70139	-767.13773	1917.23807	-537.65787	-729.63571	1922.89892	-196.40384	-634.77803	1824.22065	-209.39507	-650.23744	1894.12779	-149.61109	-575.23536	1999.81238	-245.90742	-522.56511	2057.90481	-327.85043	-502.79791	2059.67254	-286.93657	-809.65882	1957.40162	-871.39908	-745.42086	1852.01036	-939.61994	-769.88113	1930.18030	-953.82341	-635.35041	2021.73650	-897.51665	-570.02770	2061.82462	-839.08805	-555.06897	2062.51811	-877.79908	-875.67227	1345.67973	-434.18130	-897.58662	1372.06458	-661.98187	-867.34171	1358.65963	-455.98692	-891.75128	1370.58776	-624.42474	
107	1.06000000	-882.33124	906.44762	-439.19118	-900.08635	822.99457	-426.85197	-1151.38699	562.19960	-444.89546	-1227.82387	568.18446	-494.03255	-1099.76078	412.12756	-413.62130	-1055.44174	406.93098	-469.92693	-705.56837	993.13317	-771.95026	-731.78247	883.64629	-793.16698	-943.59518	635.52788	-747.88223	-1010.91485	630.62069	-684.01941	-829.83011	494.54852	-768.61448	-884.10674	491.48545	-818.45609	-967.18875	731.40289	-420.61723	-958.12009	866.67663	-404.83708	-1034.53392	779.92003	-404.69016	-801.05993	940.05078	-781.74014	-864.21389	835.77567	-776.30379	-792.42994	1215.33834	-392.34959	-785.64332	1105.86749	-413.78072	-838.33853	1073.62648	-387.00383	-905.43517	1203.25580	-382.81150	-891.79347	1087.44376	-393.79694	-781.94205	1305.28483	-763.18999	-706.14220	1189.33552	-779.76765	-879.95201	1240.15479	-747.75438	-800.83099	1129.00396	-777.08933	-766.69706	1417.30742	-428.39112	-953.27480	1495.55233	-479.21041	-798.63293	1450.38909	-683.19897	-968.83284	1503.15833	-586.52390	-910.84266	1998.33537	-512.70542	-875.77116	1997.28149	-381.30961	-852.52769	2010.16123	-638.79446	-758.96111	1923.78836	-476.65402	-757.16615	1926.48720	-538.97237	-724.44320	1930.49536	-194.08010	-629.46107	1830.91516	-206.18635	-645.28987	1901.28393	-146.78566	-571.06359	2006.02857	-244.59105	-519.32107	2063.44140	-327.81875	-499.24740	2065.43703	-286.93132	-805.22556	1967.09193	-874.17422	-743.04546	1862.37789	-943.95815	-767.43423	1940.83754	-957.08026	-630.45410	2030.34511	-902.93885	-563.18599	2069.57545	-845.07780	-549.20494	2069.97655	-883.80851	-862.30097	1354.08239	-434.15092	-884.86664	1380.16954	-661.92171	-854.36801	1366.71076	-456.21468	-878.82840	1378.67005	-624.92061	
108	1.07000000	-860.70847	913.35326	-438.22266	-879.26353	830.33963	-425.81453	-1133.78512	572.63505	-443.69204	-1211.01429	578.58944	-491.50073	-1081.13336	422.24917	-413.89243	-1037.47346	417.29228	-471.20083	-697.08624	997.17409	-771.14151	-720.92570	886.49090	-792.60300	-925.48059	632.27349	-748.91103	-993.02673	625.22565	-685.99042	-807.28756	494.72297	-768.97104	-861.19798	489.86532	-819.25891	-947.59219	740.01542	-418.81912	-936.95741	875.00544	-403.67419	-1014.13800	789.31625	-403.04936	-791.59410	940.95766	-780.74124	-851.85853	835.15383	-776.10779	-777.33395	1223.73197	-391.90677	-768.30316	1114.39997	-412.55028	-820.48193	1081.05515	-386.26150	-889.95794	1209.47372	-383.13326	-874.04979	1093.75404	-393.74283	-770.37584	1310.69902	-762.98225	-696.24153	1194.03567	-779.50746	-868.90636	1246.79376	-747.09169	-791.24046	1134.51851	-775.73891	-754.21042	1425.51795	-428.56752	-941.18486	1501.85445	-479.13426	-786.91052	1458.14975	-683.64585	-956.92476	1509.57796	-586.11823	-901.02947	2006.00322	-514.02692	-866.19698	2004.88717	-382.22372	-842.35702	2017.58721	-640.63038	-748.82146	1931.53282	-477.78641	-747.18104	1934.46437	-540.09918	-718.83078	1936.45911	-191.93953	-624.25680	1835.76347	-203.08159	-640.18049	1906.69269	-144.03458	-566.38360	2010.14792	-243.16256	-515.26014	2066.57052	-327.70330	-494.90967	2068.85758	-286.84302	-799.49170	1975.35039	-875.66944	-740.56433	1871.10634	-948.04870	-764.51808	1949.84521	-960.29005	-625.01947	2037.16207	-908.42042	-555.81785	2075.25468	-851.55414	-542.56465	2075.57699	-890.20428	-849.03982	1361.34783	-434.20372	-872.39315	1387.22826	-661.91885	-841.38493	1373.58274	-456.53263	-866.22784	1385.77333	-625.36905	
109	1.08000000	-840.05696	920.04916	-437.51317	-858.58461	837.62567	-424.71496	-1115.20952	581.35684	-442.45634	-1193.09337	586.29758	-489.53593	-1060.22335	431.24714	-413.79927	-1017.19816	427.17394	-472.01220	-688.60743	1000.19015	-770.11671	-709.95088	888.39306	-791.94835	-906.87295	627.87919	-750.14350	-974.86317	619.00434	-688.24031	-784.38595	493.91164	-768.62681	-837.63988	487.19319	-819.39095	-927.66465	747.85780	-417.05639	-916.26046	882.94186	-402.88098	-993.04887	796.72509	-402.17214	-782.15675	940.71956	-780.00618	-839.27074	833.46312	-776.29779	-762.53696	1231.12178	-391.30980	-751.37350	1122.35139	-410.94518	-803.24970	1087.77627	-385.34697	-875.22577	1215.01270	-383.65265	-856.89676	1099.71533	-393.76573	-758.14667	1315.34931	-762.26344	-686.03203	1197.85749	-778.99210	-857.42264	1252.77380	-746.73846	-781.08548	1139.35411	-774.72444	-741.91430	1432.68790	-428.82194	-929.33212	1507.17494	-478.95866	-775.19713	1464.94856	-684.01667	-945.31270	1514.89791	-585.58560	-891.00348	2012.76038	-515.23936	-856.38637	2011.53653	-382.87712	-832.15062	2023.90835	-642.11726	-738.74611	1938.03483	-478.63378	-737.08882	1941.19617	-540.93980	-712.76081	1940.79781	-189.92940	-619.22521	1838.82219	-200.06524	-634.95099	1910.32858	-141.48530	-561.12872	2012.23698	-241.70747	-510.33492	2067.43137	-327.52142	-489.78032	2070.09177	-286.77571	-792.67980	1982.31191	-876.95997	-738.05495	1878.17541	-951.74828	-760.98536	1956.99743	-963.11499	-619.01578	2042.22778	-914.00265	-547.86033	2079.03627	-858.50499	-535.41856	2079.47775	-897.34964	-835.92531	1367.56491	-434.24531	-860.05151	1393.30975	-661.89554	-828.49410	1379.67683	-456.77430	-853.80167	1391.90742	-625.63488	
